<?xml version="1.0" encoding="UTF-8" standalone="no"?>
<!-- Created with Inkscape (http://www.inkscape.org/) -->

<svg
   xmlns:dc="http://purl.org/dc/elements/1.1/"
   xmlns:cc="http://creativecommons.org/ns#"
   xmlns:rdf="http://www.w3.org/1999/02/22-rdf-syntax-ns#"
   xmlns:svg="http://www.w3.org/2000/svg"
   xmlns="http://www.w3.org/2000/svg"
   xmlns:sodipodi="http://sodipodi.sourceforge.net/DTD/sodipodi-0.dtd"
   xmlns:inkscape="http://www.inkscape.org/namespaces/inkscape"
   id="svg3336"
   version="1.1"
   inkscape:version="0.91 r13725"
   xml:space="preserve"
   width="159.99989mm"
   height="159.99989mm"
   viewBox="0 0 566.92877 566.92877"
   sodipodi:docname="disk_support_roboticia_1.1.svg"><metadata
     id="metadata3342"><rdf:RDF><cc:Work
         rdf:about=""><dc:format>image/svg+xml</dc:format><dc:type
           rdf:resource="http://purl.org/dc/dcmitype/StillImage" /><dc:title></dc:title></cc:Work></rdf:RDF></metadata><defs
     id="defs3340" /><sodipodi:namedview
     pagecolor="#ffffff"
     bordercolor="#666666"
     borderopacity="1"
     objecttolerance="10"
     gridtolerance="10"
     guidetolerance="10"
     inkscape:pageopacity="0"
     inkscape:pageshadow="2"
     inkscape:window-width="1366"
     inkscape:window-height="745"
     id="namedview3338"
     showgrid="false"
     inkscape:zoom="1.0195284"
     inkscape:cx="283.46439"
     inkscape:cy="244.23056"
     inkscape:window-x="-8"
     inkscape:window-y="-8"
     inkscape:window-maximized="1"
     inkscape:current-layer="g3346"
     units="mm"
     inkscape:document-units="mm" /><g
     id="g3344"
     inkscape:groupmode="layer"
     inkscape:label="disk_support_roboticia"
     transform="matrix(1.25,0,0,-1.25,0,566.92879)"><g
       id="g3346"><g
         id="g3348"
         transform="matrix(0,-1,1,0,0,453.54303)"><path
           d="m 62.984,119.73 c 0,-3.91 3.168,-7.082 7.079,-7.082 3.91,0 7.078,3.172 7.078,7.082 0,3.911 -3.168,7.079 -7.078,7.079 -3.911,0 -7.079,-3.168 -7.079,-7.079"
           style="fill:none;stroke:#ff0000;stroke-width:0.28349999;stroke-linecap:butt;stroke-linejoin:miter;stroke-miterlimit:10;stroke-dasharray:none;stroke-opacity:1"
           id="path3350"
           inkscape:connector-curvature="0" /></g><g
         id="g3352"
         transform="matrix(0,-1,1,0,0,453.54303)"><path
           d="m 169.914,119.73 c 0,-31.277 25.356,-56.632 56.633,-56.632 31.277,0 56.633,25.355 56.633,56.632 0,31.278 -25.356,56.633 -56.633,56.633 -31.277,0 -56.633,-25.355 -56.633,-56.633"
           style="fill:none;stroke:#ff0000;stroke-width:0.28349999;stroke-linecap:butt;stroke-linejoin:miter;stroke-miterlimit:10;stroke-dasharray:none;stroke-opacity:1"
           id="path3354"
           inkscape:connector-curvature="0" /></g><g
         id="g3356"
         transform="matrix(0,-1,1,0,0,453.54303)"><path
           d="m 219.469,416.719 c 0,-3.91 3.168,-7.082 7.078,-7.082 3.91,0 7.078,3.172 7.078,7.082 0,3.91 -3.168,7.078 -7.078,7.078 -3.91,0 -7.078,-3.168 -7.078,-7.078"
           style="fill:none;stroke:#ff0000;stroke-width:0.28349999;stroke-linecap:butt;stroke-linejoin:miter;stroke-miterlimit:10;stroke-dasharray:none;stroke-opacity:1"
           id="path3358"
           inkscape:connector-curvature="0" /></g><g
         id="g3360"
         transform="matrix(0,-1,1,0,0,453.54303)"><path
           d="m 195.02,56.941 c 0,-3.046 2.472,-5.519 5.519,-5.519 3.051,0 5.524,2.473 5.524,5.519 0,3.051 -2.473,5.524 -5.524,5.524 -3.047,0 -5.519,-2.473 -5.519,-5.524"
           style="fill:none;stroke:#ff0000;stroke-width:0.28349999;stroke-linecap:butt;stroke-linejoin:miter;stroke-miterlimit:10;stroke-dasharray:none;stroke-opacity:1"
           id="path3362"
           inkscape:connector-curvature="0" /></g><g
         id="g3364"
         transform="matrix(0,-1,1,0,0,453.54303)"><path
           d="m 155.473,119.73 c 0,-1.722 1.394,-3.117 3.113,-3.117 1.723,0 3.117,1.395 3.117,3.117 0,1.719 -1.394,3.114 -3.117,3.114 -1.719,0 -3.113,-1.395 -3.113,-3.114"
           style="fill:none;stroke:#ff0000;stroke-width:0.28349999;stroke-linecap:butt;stroke-linejoin:miter;stroke-miterlimit:10;stroke-dasharray:none;stroke-opacity:1"
           id="path3366"
           inkscape:connector-curvature="0" /></g><g
         id="g3368"
         transform="matrix(0,-1,1,0,0,453.54303)"><path
           d="m 226.547,439.371 c -117.289,0 -212.375,-95.086 -212.375,-212.375 0,-117.289 95.086,-212.375 212.375,-212.375 117.289,0 212.375,95.086 212.375,212.375 0,117.289 -95.086,212.375 -212.375,212.375"
           style="fill:none;stroke:#ff0000;stroke-width:0.28349999;stroke-linecap:butt;stroke-linejoin:miter;stroke-miterlimit:10;stroke-dasharray:none;stroke-opacity:1"
           id="path3370"
           inkscape:connector-curvature="0" /></g><g
         id="g3372"
         transform="matrix(0,-1,1,0,0,453.54303)"><path
           d="m 375.953,119.73 c 0,-3.91 3.168,-7.082 7.078,-7.082 3.91,0 7.082,3.172 7.082,7.082 0,3.911 -3.172,7.079 -7.082,7.079 -3.91,0 -7.078,-3.168 -7.078,-7.079"
           style="fill:none;stroke:#ff0000;stroke-width:0.28349999;stroke-linecap:butt;stroke-linejoin:miter;stroke-miterlimit:10;stroke-dasharray:none;stroke-opacity:1"
           id="path3374"
           inkscape:connector-curvature="0" /></g><g
         id="g3376"
         transform="matrix(0,-1,1,0,0,453.54303)"><path
           d="m 158.238,145.734 c 0,-3.046 2.473,-5.519 5.524,-5.519 3.047,0 5.519,2.473 5.519,5.519 0,3.051 -2.472,5.524 -5.519,5.524 -3.051,0 -5.524,-2.473 -5.524,-5.524"
           style="fill:none;stroke:#ff0000;stroke-width:0.28349999;stroke-linecap:butt;stroke-linejoin:miter;stroke-miterlimit:10;stroke-dasharray:none;stroke-opacity:1"
           id="path3378"
           inkscape:connector-curvature="0" /></g><g
         id="g3380"
         transform="matrix(0,-1,1,0,0,453.54303)"><path
           d="m 223.434,187.688 c 0,-1.719 1.394,-3.114 3.113,-3.114 1.723,0 3.113,1.395 3.113,3.114 0,1.722 -1.39,3.117 -3.113,3.117 -1.719,0 -3.113,-1.395 -3.113,-3.117"
           style="fill:none;stroke:#ff0000;stroke-width:0.28349999;stroke-linecap:butt;stroke-linejoin:miter;stroke-miterlimit:10;stroke-dasharray:none;stroke-opacity:1"
           id="path3382"
           inkscape:connector-curvature="0" /></g><g
         id="g3384"
         transform="matrix(0,-1,1,0,0,453.54303)"><path
           d="m 195.02,182.516 c 0,-3.051 2.472,-5.524 5.519,-5.524 3.051,0 5.524,2.473 5.524,5.524 0,3.05 -2.473,5.519 -5.524,5.519 -3.047,0 -5.519,-2.469 -5.519,-5.519"
           style="fill:none;stroke:#ff0000;stroke-width:0.28349999;stroke-linecap:butt;stroke-linejoin:miter;stroke-miterlimit:10;stroke-dasharray:none;stroke-opacity:1"
           id="path3386"
           inkscape:connector-curvature="0" /></g><g
         id="g3388"
         transform="matrix(0,-1,1,0,0,453.54303)"><path
           d="m 158.238,93.723 c 0,-3.051 2.473,-5.524 5.524,-5.524 3.047,0 5.519,2.473 5.519,5.524 0,3.047 -2.472,5.519 -5.519,5.519 -3.051,0 -5.524,-2.472 -5.524,-5.519"
           style="fill:none;stroke:#ff0000;stroke-width:0.28349999;stroke-linecap:butt;stroke-linejoin:miter;stroke-miterlimit:10;stroke-dasharray:none;stroke-opacity:1"
           id="path3390"
           inkscape:connector-curvature="0" /></g><g
         id="g3392"
         transform="matrix(0,-1,1,0,0,453.54303)"><path
           d="m 247.031,182.516 c 0,-3.051 2.473,-5.524 5.524,-5.524 3.05,0 5.519,2.473 5.519,5.524 0,3.05 -2.469,5.519 -5.519,5.519 -3.051,0 -5.524,-2.469 -5.524,-5.519"
           style="fill:none;stroke:#ff0000;stroke-width:0.28349999;stroke-linecap:butt;stroke-linejoin:miter;stroke-miterlimit:10;stroke-dasharray:none;stroke-opacity:1"
           id="path3394"
           inkscape:connector-curvature="0" /></g><g
         id="g3396"
         transform="matrix(0,-1,1,0,0,453.54303)"><path
           d="m 291.391,119.73 c 0,-1.722 1.394,-3.117 3.117,-3.117 1.719,0 3.113,1.395 3.113,3.117 0,1.719 -1.394,3.114 -3.113,3.114 -1.723,0 -3.117,-1.395 -3.117,-3.114"
           style="fill:none;stroke:#ff0000;stroke-width:0.28349999;stroke-linecap:butt;stroke-linejoin:miter;stroke-miterlimit:10;stroke-dasharray:none;stroke-opacity:1"
           id="path3398"
           inkscape:connector-curvature="0" /></g><g
         id="g3400"
         transform="matrix(0,-1,1,0,0,453.54303)"><path
           d="m 283.813,145.734 c 0,-3.046 2.472,-5.519 5.519,-5.519 3.051,0 5.523,2.473 5.523,5.519 0,3.051 -2.472,5.524 -5.523,5.524 -3.047,0 -5.519,-2.473 -5.519,-5.524"
           style="fill:none;stroke:#ff0000;stroke-width:0.28349999;stroke-linecap:butt;stroke-linejoin:miter;stroke-miterlimit:10;stroke-dasharray:none;stroke-opacity:1"
           id="path3402"
           inkscape:connector-curvature="0" /></g><g
         id="g3404"
         transform="matrix(0,-1,1,0,0,453.54303)"><path
           d="m 283.813,93.723 c 0,-3.051 2.472,-5.524 5.519,-5.524 3.051,0 5.523,2.473 5.523,5.524 0,3.047 -2.472,5.519 -5.523,5.519 -3.047,0 -5.519,-2.472 -5.519,-5.519"
           style="fill:none;stroke:#ff0000;stroke-width:0.28349999;stroke-linecap:butt;stroke-linejoin:miter;stroke-miterlimit:10;stroke-dasharray:none;stroke-opacity:1"
           id="path3406"
           inkscape:connector-curvature="0" /></g><g
         id="g3408"
         transform="matrix(0,-1,1,0,0,453.54303)"><path
           d="m 223.434,51.77 c 0,-1.719 1.394,-3.114 3.113,-3.114 1.723,0 3.113,1.395 3.113,3.114 0,1.718 -1.39,3.113 -3.113,3.113 -1.719,0 -3.113,-1.395 -3.113,-3.113"
           style="fill:none;stroke:#ff0000;stroke-width:0.28349999;stroke-linecap:butt;stroke-linejoin:miter;stroke-miterlimit:10;stroke-dasharray:none;stroke-opacity:1"
           id="path3410"
           inkscape:connector-curvature="0" /></g><g
         id="g3412"
         transform="matrix(0,-1,1,0,0,453.54303)"><path
           d="m 247.031,56.941 c 0,-3.046 2.473,-5.519 5.524,-5.519 3.05,0 5.519,2.473 5.519,5.519 0,3.051 -2.469,5.524 -5.519,5.524 -3.051,0 -5.524,-2.473 -5.524,-5.524"
           style="fill:none;stroke:#ff0000;stroke-width:0.28349999;stroke-linecap:butt;stroke-linejoin:miter;stroke-miterlimit:10;stroke-dasharray:none;stroke-opacity:1"
           id="path3414"
           inkscape:connector-curvature="0" /></g><g
         id="g3416"
         transform="matrix(0,-1,1,0,-22.677801,396.84939)"><path
           d="m 112.996,242.906 c 0,-1.722 1.399,-3.117 3.117,-3.117 1.719,0 3.114,1.395 3.114,3.117 0,1.719 -1.395,3.114 -3.114,3.114 -1.718,0 -3.117,-1.395 -3.117,-3.114"
           style="fill:none;stroke:#ff0000;stroke-width:0.28349999;stroke-linecap:butt;stroke-linejoin:miter;stroke-miterlimit:10;stroke-dasharray:none;stroke-opacity:1"
           id="path3418"
           inkscape:connector-curvature="0" /></g><g
         id="g3420"
         transform="matrix(0,-1,1,0,-22.677801,396.85086)"><path
           d="m 277.234,242.906 c 0,-1.722 1.395,-3.117 3.114,-3.117 1.722,0 3.117,1.395 3.117,3.117 0,1.719 -1.395,3.114 -3.117,3.114 -1.719,0 -3.114,-1.395 -3.114,-3.114"
           style="fill:none;stroke:#ff0000;stroke-width:0.28349999;stroke-linecap:butt;stroke-linejoin:miter;stroke-miterlimit:10;stroke-dasharray:none;stroke-opacity:1"
           id="path3422"
           inkscape:connector-curvature="0" /></g><g
         id="g3424"
         transform="matrix(0,-1,1,0,-22.675896,396.85086)"><path
           d="m 277.234,381.656 c 0,-1.718 1.395,-3.113 3.114,-3.113 1.722,0 3.117,1.395 3.117,3.113 0,1.723 -1.395,3.114 -3.117,3.114 -1.719,0 -3.114,-1.391 -3.114,-3.114"
           style="fill:none;stroke:#ff0000;stroke-width:0.28349999;stroke-linecap:butt;stroke-linejoin:miter;stroke-miterlimit:10;stroke-dasharray:none;stroke-opacity:1"
           id="path3426"
           inkscape:connector-curvature="0" /></g><g
         id="g3428"
         transform="matrix(0,-1,1,0,-22.675896,396.84939)"><path
           d="m 112.996,381.656 c 0,-1.718 1.399,-3.113 3.117,-3.113 1.719,0 3.114,1.395 3.114,3.113 0,1.723 -1.395,3.114 -3.114,3.114 -1.718,0 -3.117,-1.391 -3.117,-3.114"
           style="fill:none;stroke:#ff0000;stroke-width:0.28349999;stroke-linecap:butt;stroke-linejoin:miter;stroke-miterlimit:10;stroke-dasharray:none;stroke-opacity:1"
           id="path3430"
           inkscape:connector-curvature="0" /></g><g
         id="g3432"
         transform="matrix(0,-1,1,0,0,453.54303)"><path
           d="m 175.379,71.676 c 0,-1.723 1.394,-3.117 3.113,-3.117 1.719,0 3.113,1.394 3.113,3.117 0,1.719 -1.394,3.113 -3.113,3.113 -1.719,0 -3.113,-1.394 -3.113,-3.113"
           style="fill:none;stroke:#ff0000;stroke-width:0.28349999;stroke-linecap:butt;stroke-linejoin:miter;stroke-miterlimit:10;stroke-dasharray:none;stroke-opacity:1"
           id="path3434"
           inkscape:connector-curvature="0" /></g><g
         id="g3436"
         transform="matrix(0,-1,1,0,0,453.54303)"><path
           d="m 175.379,167.785 c 0,-1.722 1.394,-3.117 3.113,-3.117 1.719,0 3.113,1.395 3.113,3.117 0,1.719 -1.394,3.113 -3.113,3.113 -1.719,0 -3.113,-1.394 -3.113,-3.113"
           style="fill:none;stroke:#ff0000;stroke-width:0.28349999;stroke-linecap:butt;stroke-linejoin:miter;stroke-miterlimit:10;stroke-dasharray:none;stroke-opacity:1"
           id="path3438"
           inkscape:connector-curvature="0" /></g><g
         id="g3440"
         transform="matrix(0,-1,1,0,0,453.54303)"><path
           d="m 271.488,167.785 c 0,-1.722 1.395,-3.117 3.114,-3.117 1.718,0 3.113,1.395 3.113,3.117 0,1.719 -1.395,3.113 -3.113,3.113 -1.719,0 -3.114,-1.394 -3.114,-3.113"
           style="fill:none;stroke:#ff0000;stroke-width:0.28349999;stroke-linecap:butt;stroke-linejoin:miter;stroke-miterlimit:10;stroke-dasharray:none;stroke-opacity:1"
           id="path3442"
           inkscape:connector-curvature="0" /></g><g
         id="g3444"
         transform="matrix(0,-1,1,0,0,453.54303)"><path
           d="m 271.488,71.676 c 0,-1.723 1.395,-3.117 3.114,-3.117 1.718,0 3.113,1.394 3.113,3.117 0,1.719 -1.395,3.113 -3.113,3.113 -1.719,0 -3.114,-1.394 -3.114,-3.113"
           style="fill:none;stroke:#ff0000;stroke-width:0.28349999;stroke-linecap:butt;stroke-linejoin:miter;stroke-miterlimit:10;stroke-dasharray:none;stroke-opacity:1"
           id="path3446"
           inkscape:connector-curvature="0" /></g><path
         d="m 215.082,51.594 -2.621,0.48 c -0.063,0.012 -0.133,0.071 -0.152,0.133 l -0.805,1.848 c -0.031,0.058 -0.024,0.144 0.016,0.199 l 1.523,2.195 c 0.035,0.055 0.031,0.137 -0.016,0.18 l -1.906,1.883 c -0.047,0.043 -0.129,0.051 -0.183,0.015 l -2.266,-1.535 c -0.051,-0.035 -0.145,-0.043 -0.203,-0.011 l -1.821,0.734 c -0.058,0.016 -0.121,0.086 -0.132,0.148 l -0.504,2.676 c -0.012,0.063 -0.074,0.113 -0.141,0.113 l -2.699,0 c -0.067,0 -0.129,-0.05 -0.137,-0.113 l -0.508,-2.676 c -0.011,-0.062 -0.07,-0.132 -0.132,-0.148 l -1.821,-0.734 c -0.058,-0.032 -0.152,-0.024 -0.203,0.011 l -2.266,1.535 c -0.054,0.036 -0.136,0.028 -0.183,-0.015 l -1.906,-1.883 c -0.047,-0.043 -0.055,-0.125 -0.016,-0.18 l 1.527,-2.195 c 0.036,-0.055 0.043,-0.141 0.012,-0.199 l -0.805,-1.848 c -0.019,-0.062 -0.089,-0.121 -0.156,-0.133 l -2.621,-0.48 c -0.062,-0.012 -0.117,-0.074 -0.117,-0.137 l 0,-2.66 c 0,-0.066 0.055,-0.125 0.117,-0.141 l 2.559,-0.468 c 0.062,-0.012 0.132,-0.071 0.152,-0.133 l 0.797,-1.965 c 0.027,-0.059 0.023,-0.149 -0.012,-0.199 L 196,43.801 c -0.039,-0.055 -0.031,-0.133 0.016,-0.176 l 1.906,-1.883 c 0.047,-0.047 0.129,-0.054 0.183,-0.019 l 2.079,1.41 c 0.054,0.035 0.144,0.039 0.203,0.008 l 0.914,-0.485 c 0.058,-0.031 0.125,-0.008 0.152,0.055 l 1.891,4.504 c 0.023,0.058 0,0.137 -0.055,0.168 l -0.226,0.14 c -0.047,0.024 -0.102,0.071 -0.149,0.11 -0.828,0.519 -1.379,1.433 -1.379,2.476 0,1.625 1.336,2.946 2.988,2.946 1.649,0 2.985,-1.321 2.985,-2.946 0,-1.043 -0.551,-1.957 -1.379,-2.476 -0.043,-0.039 -0.102,-0.086 -0.145,-0.11 l -0.23,-0.14 c -0.055,-0.031 -0.078,-0.11 -0.059,-0.168 l 1.895,-4.504 c 0.023,-0.063 0.094,-0.086 0.152,-0.055 l 0.914,0.485 c 0.059,0.031 0.145,0.027 0.199,-0.008 l 2.083,-1.41 c 0.054,-0.035 0.136,-0.028 0.183,0.015 l 1.906,1.887 c 0.047,0.043 0.051,0.121 0.016,0.176 l -1.453,2.09 c -0.035,0.05 -0.043,0.14 -0.012,0.199 l 0.797,1.965 c 0.02,0.062 0.086,0.121 0.152,0.133 l 2.555,0.468 c 0.066,0.016 0.117,0.075 0.117,0.141 l 0,2.656 c 0,0.067 -0.051,0.129 -0.117,0.141"
         style="fill:#0000ff;fill-opacity:1;fill-rule:nonzero;stroke:none"
         id="path3464"
         inkscape:connector-curvature="0" /><path
         d="m 198.059,32.223 0.574,0 0,1.925 c 0,0.7 -0.485,0.934 -1.192,0.934 -0.429,0 -0.746,-0.113 -0.968,-0.414 l 0.453,-0.336 c 0.101,0.16 0.242,0.215 0.543,0.215 0.41,0 0.59,-0.094 0.59,-0.363 l 0,-0.293 -0.801,0 c -0.617,0 -0.934,-0.387 -0.934,-0.836 0,-0.492 0.375,-0.864 1.016,-0.864 0.387,0 0.586,0.09 0.703,0.282 l 0.016,0 0,-0.25 z m 0,0.992 c 0,-0.442 -0.168,-0.488 -0.649,-0.488 -0.39,0 -0.543,0.168 -0.543,0.355 0,0.207 0.16,0.34 0.5,0.34 l 0.692,0 0,-0.207 z"
         style="fill:#0000ff;fill-opacity:1;fill-rule:evenodd;stroke:none"
         id="path3466"
         inkscape:connector-curvature="0" /><path
         d="m 199.266,32.223 0.574,0 0,1.699 c 0,0.414 0.277,0.59 0.562,0.59 0.149,0 0.243,-0.039 0.379,-0.137 l 0.418,0.488 c -0.176,0.133 -0.371,0.219 -0.601,0.219 -0.301,0 -0.563,-0.113 -0.743,-0.336 l -0.015,0 0,0.301 -0.574,0 0,-2.824 z"
         style="fill:#0000ff;fill-opacity:1;fill-rule:evenodd;stroke:none"
         id="path3468"
         inkscape:connector-curvature="0" /><path
         d="m 202.922,32.223 0.578,0 0,3.968 -0.578,0 0,-1.445 c -0.215,0.203 -0.445,0.336 -0.738,0.336 -0.352,0 -0.606,-0.156 -0.77,-0.367 -0.16,-0.203 -0.207,-0.383 -0.207,-1.074 0,-0.7 0.047,-0.883 0.207,-1.082 0.164,-0.211 0.418,-0.368 0.77,-0.368 0.293,0 0.558,0.133 0.738,0.329 l 0,-0.297 z m -0.567,2.289 c 0.54,0 0.567,-0.465 0.567,-0.871 0,-0.414 -0.027,-0.883 -0.567,-0.883 -0.539,0 -0.566,0.441 -0.566,0.883 0,0.433 0.027,0.871 0.566,0.871"
         style="fill:#0000ff;fill-opacity:1;fill-rule:evenodd;stroke:none"
         id="path3470"
         inkscape:connector-curvature="0" /><path
         d="m 206.438,32.223 0.511,0 0.914,2.824 -0.609,0 -0.547,-1.977 -0.012,0 -0.652,1.977 -0.418,0 -0.648,-1.977 -0.012,0 -0.551,1.977 -0.605,0 0.914,-2.824 0.507,0 0.602,1.98 0.008,0 0.598,-1.98 z"
         style="fill:#0000ff;fill-opacity:1;fill-rule:evenodd;stroke:none"
         id="path3472"
         inkscape:connector-curvature="0" /><path
         d="m 209.637,32.223 0.578,0 0,1.925 c 0,0.7 -0.488,0.934 -1.195,0.934 -0.426,0 -0.743,-0.113 -0.965,-0.414 l 0.453,-0.336 c 0.101,0.16 0.242,0.215 0.543,0.215 0.41,0 0.586,-0.094 0.586,-0.363 l 0,-0.293 -0.797,0 c -0.617,0 -0.934,-0.387 -0.934,-0.836 0,-0.492 0.375,-0.864 1.012,-0.864 0.391,0 0.586,0.09 0.707,0.282 l 0.012,0 0,-0.25 z m 0,0.992 c 0,-0.442 -0.164,-0.488 -0.645,-0.488 -0.39,0 -0.543,0.168 -0.543,0.355 0,0.207 0.16,0.34 0.496,0.34 l 0.692,0 0,-0.207 z"
         style="fill:#0000ff;fill-opacity:1;fill-rule:evenodd;stroke:none"
         id="path3474"
         inkscape:connector-curvature="0" /><path
         d="m 210.848,32.223 0.574,0 0,1.699 c 0,0.414 0.277,0.59 0.558,0.59 0.149,0 0.243,-0.039 0.379,-0.137 l 0.422,0.488 c -0.179,0.133 -0.371,0.219 -0.601,0.219 -0.305,0 -0.563,-0.113 -0.742,-0.336 l -0.016,0 0,0.301 -0.574,0 0,-2.824 z"
         style="fill:#0000ff;fill-opacity:1;fill-rule:evenodd;stroke:none"
         id="path3476"
         inkscape:connector-curvature="0" /><path
         d="m 215.148,33.422 0,0.469 c 0,0.726 -0.543,1.191 -1.175,1.191 -0.555,0 -1.184,-0.355 -1.184,-1.453 0,-1.16 0.684,-1.438 1.274,-1.438 0.382,0 0.75,0.133 1.031,0.457 l -0.418,0.348 c -0.168,-0.172 -0.406,-0.269 -0.625,-0.269 -0.395,0 -0.684,0.234 -0.684,0.695 l 1.781,0 z m -1.781,0.469 c 0.012,0.425 0.262,0.656 0.606,0.656 0.336,0 0.586,-0.231 0.601,-0.656 l -1.207,0 z"
         style="fill:#0000ff;fill-opacity:1;fill-rule:evenodd;stroke:none"
         id="path3478"
         inkscape:connector-curvature="0" /><path
         d="m 190.785,38.098 c 0,-0.614 0.09,-0.848 0.305,-1.086 0.16,-0.172 0.426,-0.364 0.871,-0.364 0.449,0 0.715,0.192 0.871,0.364 0.223,0.238 0.313,0.472 0.313,1.086 0,0.609 -0.09,0.84 -0.313,1.082 -0.156,0.172 -0.422,0.363 -0.871,0.363 -0.445,0 -0.711,-0.191 -0.871,-0.363 -0.215,-0.242 -0.305,-0.473 -0.305,-1.082 m 1.781,-0.004 c 0,-0.406 -0.031,-0.52 -0.14,-0.672 -0.086,-0.113 -0.266,-0.203 -0.465,-0.203 -0.195,0 -0.375,0.09 -0.461,0.203 -0.109,0.152 -0.141,0.266 -0.141,0.676 0,0.406 0.032,0.519 0.141,0.668 0.086,0.117 0.266,0.207 0.461,0.207 0.199,0 0.379,-0.09 0.465,-0.207 0.109,-0.149 0.14,-0.262 0.14,-0.672"
         style="fill:#0000ff;fill-opacity:1;fill-rule:evenodd;stroke:none"
         id="path3480"
         inkscape:connector-curvature="0" /><path
         d="m 198.676,37.879 0,0.469 c 0,0.73 -0.551,1.195 -1.184,1.195 -0.551,0 -1.179,-0.359 -1.179,-1.457 0,-1.156 0.683,-1.438 1.269,-1.438 0.387,0 0.754,0.137 1.035,0.458 l -0.418,0.351 c -0.168,-0.172 -0.406,-0.273 -0.629,-0.273 -0.394,0 -0.683,0.234 -0.683,0.695 l 1.789,0 z m -1.789,0.469 c 0.011,0.429 0.269,0.66 0.605,0.66 0.34,0 0.59,-0.231 0.606,-0.66 l -1.211,0 z"
         style="fill:#0000ff;fill-opacity:1;fill-rule:evenodd;stroke:none"
         id="path3482"
         inkscape:connector-curvature="0" /><path
         d="m 199.168,36.684 0.574,0 0,1.679 c 0,0.387 0.242,0.61 0.571,0.61 0.32,0 0.562,-0.223 0.562,-0.61 l 0,-1.679 0.578,0 0,1.875 c 0,0.644 -0.508,0.984 -0.953,0.984 -0.305,0 -0.566,-0.113 -0.746,-0.336 l -0.012,0 0,0.301 -0.574,0 0,-2.824 z"
         style="fill:#0000ff;fill-opacity:1;fill-rule:evenodd;stroke:none"
         id="path3484"
         inkscape:connector-curvature="0" /><path
         d="m 203.012,37.156 c 0.367,-0.34 0.797,-0.508 1.258,-0.508 0.668,0 1.191,0.317 1.191,0.872 0,0.449 -0.238,0.808 -0.832,0.843 l -0.477,0.035 c -0.289,0.024 -0.379,0.145 -0.379,0.266 0,0.199 0.125,0.344 0.493,0.344 0.312,0 0.543,-0.11 0.769,-0.262 l 0.356,0.41 c -0.282,0.235 -0.621,0.387 -1.125,0.387 -0.602,0 -1.067,-0.297 -1.067,-0.871 0,-0.484 0.348,-0.766 0.824,-0.801 l 0.508,-0.043 c 0.199,-0.019 0.352,-0.082 0.352,-0.281 0,-0.238 -0.238,-0.363 -0.567,-0.363 -0.382,0 -0.652,0.125 -0.902,0.363 l -0.402,-0.391 z"
         style="fill:#0000ff;fill-opacity:1;fill-rule:evenodd;stroke:none"
         id="path3486"
         inkscape:connector-curvature="0" /><path
         d="m 205.785,38.098 c 0,-0.614 0.09,-0.848 0.313,-1.086 0.16,-0.172 0.422,-0.364 0.871,-0.364 0.445,0 0.711,0.192 0.867,0.364 0.223,0.238 0.312,0.472 0.312,1.086 0,0.609 -0.089,0.84 -0.312,1.082 -0.156,0.172 -0.422,0.363 -0.867,0.363 -0.449,0 -0.711,-0.191 -0.871,-0.363 -0.223,-0.242 -0.313,-0.473 -0.313,-1.082 m 1.789,-0.004 c 0,-0.406 -0.035,-0.52 -0.144,-0.672 -0.082,-0.113 -0.262,-0.203 -0.461,-0.203 -0.199,0 -0.379,0.09 -0.465,0.203 -0.106,0.152 -0.141,0.266 -0.141,0.676 0,0.406 0.035,0.519 0.141,0.668 0.086,0.117 0.266,0.207 0.465,0.207 0.199,0 0.379,-0.09 0.461,-0.207 0.109,-0.149 0.144,-0.262 0.144,-0.672"
         style="fill:#0000ff;fill-opacity:1;fill-rule:evenodd;stroke:none"
         id="path3488"
         inkscape:connector-curvature="0" /><path
         d="m 208.641,37.629 c 0,-0.637 0.507,-0.981 0.961,-0.981 0.3,0 0.558,0.114 0.738,0.336 l 0.012,0 0,-0.3 0.578,0 0,2.824 -0.578,0 0,-1.68 c 0,-0.387 -0.243,-0.609 -0.567,-0.609 -0.324,0 -0.57,0.222 -0.57,0.609 l 0,1.68 -0.574,0 0,-1.879 z"
         style="fill:#0000ff;fill-opacity:1;fill-rule:evenodd;stroke:none"
         id="path3490"
         inkscape:connector-curvature="0" /><path
         d="m 211.563,36.684 0.574,0 0,1.699 c 0,0.41 0.273,0.59 0.558,0.59 0.149,0 0.243,-0.039 0.379,-0.137 l 0.418,0.488 c -0.176,0.133 -0.367,0.219 -0.597,0.219 -0.305,0 -0.567,-0.113 -0.747,-0.336 l -0.011,0 0,0.301 -0.574,0 0,-2.824 z"
         style="fill:#0000ff;fill-opacity:1;fill-rule:evenodd;stroke:none"
         id="path3492"
         inkscape:connector-curvature="0" /><path
         d="m 215.328,37.512 c -0.14,-0.172 -0.344,-0.293 -0.582,-0.293 -0.469,0 -0.742,0.262 -0.742,0.875 0,0.617 0.273,0.879 0.742,0.879 0.238,0 0.442,-0.121 0.582,-0.293 l 0.422,0.371 c -0.246,0.285 -0.59,0.492 -1.027,0.492 -0.66,0 -1.301,-0.414 -1.301,-1.449 0,-1.031 0.641,-1.446 1.301,-1.446 0.437,0 0.781,0.208 1.027,0.493 l -0.422,0.371 z"
         style="fill:#0000ff;fill-opacity:1;fill-rule:evenodd;stroke:none"
         id="path3494"
         inkscape:connector-curvature="0" /><path
         d="m 218.262,37.879 0,0.469 c 0,0.73 -0.551,1.195 -1.184,1.195 -0.551,0 -1.18,-0.359 -1.18,-1.457 0,-1.156 0.684,-1.438 1.274,-1.438 0.383,0 0.75,0.137 1.031,0.458 l -0.418,0.351 c -0.168,-0.172 -0.406,-0.273 -0.625,-0.273 -0.394,0 -0.683,0.234 -0.683,0.695 l 1.785,0 z m -1.785,0.469 c 0.007,0.429 0.265,0.66 0.601,0.66 0.34,0 0.59,-0.231 0.606,-0.66 l -1.207,0 z"
         style="fill:#0000ff;fill-opacity:1;fill-rule:evenodd;stroke:none"
         id="path3496"
         inkscape:connector-curvature="0" /><path
         d="m 194.777,37.219 c 0.543,0 0.571,0.437 0.571,0.875 0,0.441 -0.028,0.879 -0.571,0.879 -0.535,0 -0.566,-0.469 -0.566,-0.879 0,-0.406 0.031,-0.875 0.566,-0.875 m -1.144,-4.996 0,7.285 0.578,0 0,-0.293 c 0.184,0.191 0.445,0.328 0.742,0.328 0.352,0 0.606,-0.156 0.77,-0.371 0.156,-0.199 0.199,-0.383 0.199,-1.078 0,-0.692 -0.043,-0.875 -0.199,-1.074 -0.164,-0.215 -0.418,-0.372 -0.77,-0.372 -0.297,0 -0.527,0.137 -0.742,0.336 l 0,-2.238 c 0.191,0.223 0.449,0.336 0.754,0.336 0.449,0 0.957,-0.34 0.957,-0.98 l 0,-1.879 -0.578,0 0,1.683 c 0,0.383 -0.242,0.606 -0.563,0.606 -0.328,0 -0.57,-0.223 -0.57,-0.606 l 0,-1.683 -0.578,0 z"
         style="fill:#0000ff;fill-opacity:1;fill-rule:nonzero;stroke:none"
         id="path3498"
         inkscape:connector-curvature="0" /><path
         d="m 247.184,53.93 c 2.066,0 3.816,-0.703 5.238,-2.102 1.43,-1.41 2.144,-3.133 2.144,-5.164 0,-2.039 -0.703,-3.742 -2.109,-5.101 -1.492,-1.442 -3.25,-2.165 -5.273,-2.165 -1.996,0 -3.723,0.711 -5.188,2.141 -1.445,1.43 -2.172,3.137 -2.172,5.125 0,1.988 0.727,3.711 2.172,5.164 1.422,1.399 3.149,2.102 5.188,2.102 z m 0.023,-1.313 c -1.676,0 -3.094,-0.578 -4.25,-1.738 -1.203,-1.207 -1.805,-2.613 -1.805,-4.215 0,-1.609 0.598,-3.004 1.789,-4.18 1.196,-1.175 2.618,-1.761 4.266,-1.761 1.641,0 3.074,0.593 4.293,1.777 1.156,1.098 1.734,2.484 1.734,4.164 0,1.652 -0.586,3.059 -1.761,4.215 -1.176,1.16 -2.598,1.738 -4.266,1.738 z m 1.977,-4.152 0,-2.969 -0.844,0 0,-3.527 -2.289,0 0,3.527 -0.844,0 0,2.969 c 0,0.133 0.047,0.242 0.137,0.332 0.094,0.09 0.207,0.137 0.336,0.137 l 3.031,0 c 0.121,0 0.23,-0.047 0.328,-0.137 0.094,-0.09 0.145,-0.199 0.145,-0.332 z m -3.016,1.871 c 0,0.684 0.34,1.023 1.027,1.023 0.684,0 1.028,-0.339 1.028,-1.023 0,-0.676 -0.344,-1.012 -1.028,-1.012 -0.683,0 -1.027,0.336 -1.027,1.012 z"
         style="fill:#0000ff;fill-opacity:1;fill-rule:nonzero;stroke:none"
         id="path3500"
         inkscape:connector-curvature="0" /><path
         d="m 230.887,53.93 c 2.062,0 3.816,-0.711 5.265,-2.129 0.692,-0.684 1.219,-1.465 1.578,-2.34 0.36,-0.879 0.54,-1.813 0.54,-2.797 0,-0.996 -0.176,-1.93 -0.532,-2.797 -0.355,-0.867 -0.879,-1.636 -1.574,-2.304 -0.719,-0.696 -1.539,-1.235 -2.449,-1.606 -0.91,-0.371 -1.856,-0.559 -2.828,-0.559 -0.973,0 -1.907,0.184 -2.797,0.551 -0.891,0.367 -1.692,0.903 -2.399,1.598 -0.703,0.695 -1.242,1.48 -1.609,2.351 -0.367,0.875 -0.555,1.797 -0.555,2.766 0,0.957 0.188,1.883 0.559,2.77 0.375,0.886 0.918,1.679 1.629,2.379 1.402,1.41 3.125,2.117 5.172,2.117 z m 0.023,-1.313 c -1.68,0 -3.097,-0.578 -4.25,-1.738 -0.578,-0.578 -1.023,-1.231 -1.336,-1.949 -0.308,-0.723 -0.465,-1.481 -0.465,-2.266 0,-0.777 0.157,-1.531 0.465,-2.25 0.313,-0.723 0.758,-1.367 1.336,-1.933 0.578,-0.571 1.235,-1 1.965,-1.297 0.727,-0.301 1.488,-0.45 2.285,-0.45 0.793,0 1.559,0.149 2.301,0.454 0.742,0.304 1.41,0.738 2.004,1.308 1.152,1.11 1.723,2.496 1.723,4.168 0,0.801 -0.145,1.567 -0.446,2.281 -0.297,0.719 -0.73,1.36 -1.301,1.922 -1.187,1.168 -2.613,1.75 -4.281,1.75 z m -0.09,-4.746 -0.988,-0.508 c -0.105,0.215 -0.234,0.368 -0.387,0.453 -0.152,0.086 -0.297,0.133 -0.429,0.133 -0.657,0 -0.989,-0.429 -0.989,-1.285 0,-0.391 0.086,-0.703 0.254,-0.933 0.164,-0.235 0.41,-0.352 0.735,-0.352 0.429,0 0.734,0.207 0.91,0.621 l 0.906,-0.453 c -0.191,-0.356 -0.461,-0.633 -0.801,-0.836 -0.343,-0.203 -0.722,-0.305 -1.133,-0.305 -0.66,0 -1.191,0.2 -1.593,0.598 -0.403,0.394 -0.602,0.949 -0.602,1.66 0,0.692 0.199,1.238 0.61,1.645 0.41,0.406 0.921,0.613 1.546,0.613 0.911,0 1.567,-0.352 1.961,-1.051 z m 4.25,0 -0.972,-0.508 c -0.106,0.215 -0.235,0.368 -0.391,0.453 -0.152,0.086 -0.297,0.133 -0.441,0.133 -0.657,0 -0.985,-0.429 -0.985,-1.285 0,-0.391 0.082,-0.703 0.25,-0.933 0.164,-0.235 0.41,-0.352 0.735,-0.352 0.429,0 0.734,0.207 0.91,0.621 l 0.922,-0.453 c -0.203,-0.356 -0.473,-0.633 -0.817,-0.836 -0.34,-0.203 -0.715,-0.305 -1.117,-0.305 -0.668,0 -1.199,0.2 -1.598,0.598 -0.402,0.394 -0.601,0.949 -0.601,1.66 0,0.692 0.203,1.238 0.609,1.645 0.41,0.406 0.926,0.613 1.547,0.613 0.914,0 1.563,-0.352 1.949,-1.051 z"
         style="fill:#0000ff;fill-opacity:1;fill-rule:nonzero;stroke:none"
         id="path3502"
         inkscape:connector-curvature="0" /><path
         d="m 263.477,53.93 c 2.062,0 3.808,-0.703 5.238,-2.117 1.433,-1.399 2.144,-3.118 2.144,-5.149 0,-2.035 -0.699,-3.738 -2.101,-5.113 -1.485,-1.434 -3.246,-2.153 -5.281,-2.153 -1.993,0 -3.719,0.711 -5.184,2.141 -1.449,1.426 -2.172,3.137 -2.172,5.125 0,1.981 0.723,3.695 2.172,5.149 1.43,1.414 3.156,2.117 5.184,2.117 z m 0.027,-1.313 c -1.676,0 -3.094,-0.582 -4.25,-1.75 -1.203,-1.203 -1.805,-2.601 -1.805,-4.203 0,-1.621 0.594,-3.012 1.789,-4.18 1.196,-1.175 2.614,-1.761 4.266,-1.761 1.641,0 3.07,0.593 4.289,1.777 1.16,1.106 1.738,2.492 1.738,4.164 0,1.66 -0.586,3.063 -1.761,4.203 -1.168,1.168 -2.59,1.75 -4.266,1.75 z m -3.293,-4.929 c 0.144,0.89 0.504,1.582 1.094,2.07 0.59,0.488 1.304,0.73 2.144,0.73 1.16,0 2.082,-0.363 2.766,-1.101 0.683,-0.735 1.027,-1.676 1.027,-2.828 0,-1.114 -0.355,-2.043 -1.066,-2.782 -0.711,-0.738 -1.633,-1.109 -2.766,-1.109 -0.832,0 -1.551,0.246 -2.156,0.738 -0.606,0.492 -0.973,1.196 -1.094,2.106 l 1.856,0 c 0.043,-0.883 0.586,-1.328 1.621,-1.328 0.515,0 0.933,0.222 1.25,0.664 0.316,0.441 0.472,1.031 0.472,1.761 0,0.774 -0.144,1.356 -0.433,1.758 -0.289,0.406 -0.707,0.606 -1.25,0.606 -0.985,0 -1.535,-0.426 -1.66,-1.285 l 0.543,0 -1.465,-1.438 -1.461,1.438 0.578,0 z"
         style="fill:#0000ff;fill-opacity:1;fill-rule:nonzero;stroke:none"
         id="path3504"
         inkscape:connector-curvature="0" /><g
         id="g3506"
         transform="matrix(0,-1,1,0,-36.095119,386.06085)"><path
           d="m 148.852,358.625 c 0,-5.16 4.183,-9.344 9.343,-9.344 5.16,0 9.344,4.184 9.344,9.344 0,5.16 -4.184,9.344 -9.344,9.344 -5.16,0 -9.343,-4.184 -9.343,-9.344"
           style="fill:none;stroke:#ff0000;stroke-width:0.2832;stroke-linecap:round;stroke-linejoin:round;stroke-miterlimit:10;stroke-dasharray:none;stroke-opacity:1"
           id="path3508"
           inkscape:connector-curvature="0" /></g><g
         id="g3510"
         transform="matrix(0,-1,1,0,-15.69353,385.27617)"><path
           d="m 148.852,286.859 c 0,-5.164 4.183,-9.347 9.343,-9.347 5.16,0 9.344,4.183 9.344,9.347 0,5.161 -4.184,9.344 -9.344,9.344 -5.16,0 -9.343,-4.183 -9.343,-9.344"
           style="fill:none;stroke:#ff0000;stroke-width:0.2832;stroke-linecap:round;stroke-linejoin:round;stroke-miterlimit:10;stroke-dasharray:none;stroke-opacity:1"
           id="path3512"
           inkscape:connector-curvature="0" /></g><g
         id="g3514"
         transform="matrix(0,-1,1,0,-37.664472,419.01727)"><path
           d="m 233.801,358.625 c 0,-5.16 4.183,-9.344 9.344,-9.344 5.16,0 9.343,4.184 9.343,9.344 0,5.16 -4.183,9.344 -9.343,9.344 -5.161,0 -9.344,-4.184 -9.344,-9.344"
           style="fill:none;stroke:#ff0000;stroke-width:0.2832;stroke-linecap:round;stroke-linejoin:round;stroke-miterlimit:10;stroke-dasharray:none;stroke-opacity:1"
           id="path3516"
           inkscape:connector-curvature="0" /></g><g
         id="g3518"
         transform="matrix(0,-1,1,0,-17.262883,419.80195)"><path
           d="m 233.801,286.859 c 0,-5.164 4.183,-9.347 9.344,-9.347 5.16,0 9.343,4.183 9.343,9.347 0,5.161 -4.183,9.344 -9.343,9.344 -5.161,0 -9.344,-4.183 -9.344,-9.344"
           style="fill:none;stroke:#ff0000;stroke-width:0.2832;stroke-linecap:round;stroke-linejoin:round;stroke-miterlimit:10;stroke-dasharray:none;stroke-opacity:1"
           id="path3520"
           inkscape:connector-curvature="0" /></g><g
         id="g3522"
         transform="matrix(0,-1,1,0,-36.095119,386.06085)"><path
           d="m 154.371,358.625 c 0,-2.109 1.711,-3.82 3.824,-3.82 2.11,0 3.825,1.711 3.825,3.82 0,2.113 -1.715,3.824 -3.825,3.824 -2.113,0 -3.824,-1.711 -3.824,-3.824"
           style="fill:none;stroke:#ff0000;stroke-width:0.2832;stroke-linecap:round;stroke-linejoin:round;stroke-miterlimit:10;stroke-dasharray:none;stroke-opacity:1"
           id="path3524"
           inkscape:connector-curvature="0" /></g><g
         id="g3526"
         transform="matrix(0,-1,1,0,-37.664472,419.01727)"><path
           d="m 239.32,358.625 c 0,-2.109 1.715,-3.82 3.825,-3.82 2.109,0 3.824,1.711 3.824,3.82 0,2.113 -1.715,3.824 -3.824,3.824 -2.11,0 -3.825,-1.711 -3.825,-3.824"
           style="fill:none;stroke:#ff0000;stroke-width:0.2832;stroke-linecap:round;stroke-linejoin:round;stroke-miterlimit:10;stroke-dasharray:none;stroke-opacity:1"
           id="path3528"
           inkscape:connector-curvature="0" /></g><g
         id="g3530"
         transform="matrix(0,-1,1,0,-17.262883,419.80195)"><path
           d="m 239.32,286.859 c 0,-2.113 1.715,-3.824 3.825,-3.824 2.109,0 3.824,1.711 3.824,3.824 0,2.11 -1.715,3.821 -3.824,3.821 -2.11,0 -3.825,-1.711 -3.825,-3.821"
           style="fill:none;stroke:#ff0000;stroke-width:0.2832;stroke-linecap:round;stroke-linejoin:round;stroke-miterlimit:10;stroke-dasharray:none;stroke-opacity:1"
           id="path3532"
           inkscape:connector-curvature="0" /></g><g
         id="g3534"
         transform="matrix(0,-1,1,0,-15.69353,385.27617)"><path
           d="m 154.371,286.859 c 0,-2.113 1.711,-3.824 3.824,-3.824 2.11,0 3.825,1.711 3.825,3.824 0,2.11 -1.715,3.821 -3.825,3.821 -2.113,0 -3.824,-1.711 -3.824,-3.821"
           style="fill:none;stroke:#ff0000;stroke-width:0.2832;stroke-linecap:round;stroke-linejoin:round;stroke-miterlimit:10;stroke-dasharray:none;stroke-opacity:1"
           id="path3536"
           inkscape:connector-curvature="0" /></g><text
         transform="matrix(1,0,0,-1,145.40362,67.266168)"
         style="font-variant:normal;font-weight:normal;font-size:18px;font-family:Verdana;-inkscape-font-specification:Verdana;writing-mode:lr-tb;fill:#0000ff;fill-opacity:1;fill-rule:nonzero;stroke:none"
         id="text3538"><tspan
           x="0 14.724 29.448 43.577999 50.112 57.779999 68.688004 79.902 90.809998 97.902 102.834 112.194 117.054 127.854 134.388 143.748 154.65601"
           y="0"
           sodipodi:role="line"
           id="tspan3540">www.roboticia.com</tspan></text>
<text
         transform="matrix(1,0,0,-1,191.60666,23.780999)"
         style="font-variant:normal;font-weight:normal;font-size:6px;font-family:'DejaVu Sans';-inkscape-font-specification:DejaVuSans;writing-mode:lr-tb;fill:#0000ff;fill-opacity:1;fill-rule:nonzero;stroke:none"
         id="text3542"><tspan
           x="0 3.8039999 7.4699998 12.372 16.062 18.402 22.091999 25.896 27.798 31.601999 35.147999 37.049999 40.854 44.52 48.324001 52.127998 55.571999 57.731998 61.535999 63.882 67.547997 69.209999 72.900002 76.194"
           y="0"
           sodipodi:role="line"
           id="tspan3544">powered by poppy-project</tspan></text>
<path
         d="m 203.941,363.383 c -1.187,0.426 -1.836,1.445 -1.836,2.883 0,1.078 0.176,1.679 0.747,2.515 0.511,0.754 1.171,1.172 2.156,1.356 1.351,0.258 2.508,-0.25 3.066,-1.344 0.254,-0.5 0.293,-0.781 0.239,-1.766 -0.067,-1.261 -0.266,-1.781 -1.008,-2.629 -0.852,-0.968 -2.289,-1.402 -3.364,-1.015 z m 2.313,1.109 c 1.223,1.141 1.394,3.465 0.332,4.528 -0.395,0.39 -0.496,0.421 -1.219,0.363 -0.89,-0.074 -1.219,-0.305 -1.758,-1.227 -0.695,-1.183 -0.578,-2.883 0.254,-3.718 0.395,-0.395 0.496,-0.422 1.223,-0.364 0.578,0.047 0.894,0.16 1.168,0.418 z m 8.84,-1.176 c -0.242,0.071 -0.582,0.168 -0.762,0.227 -0.203,0.063 -0.328,0.039 -0.328,-0.062 0,-0.09 -0.231,-0.165 -0.508,-0.165 -0.508,0 -0.512,0.004 -0.433,0.547 0.3,2.118 0.671,5.785 0.75,7.391 l 0.089,1.918 0.524,0.055 c 0.285,0.031 -1.535,0.066 -4.051,0.078 -3.621,0.019 -5.051,0.086 -6.891,0.32 -2.824,0.359 -3.207,0.473 -3.566,1.063 -0.258,0.425 -0.277,0.777 -0.281,4.898 0,4.281 0.011,4.457 0.301,4.828 0.167,0.211 0.441,0.457 0.609,0.547 0.168,0.09 1.543,0.316 3.055,0.5 1.511,0.184 2.761,0.355 2.781,0.379 0.019,0.023 0.242,0.664 0.492,1.426 0.25,0.761 0.77,2.019 1.148,2.797 l 0.696,1.41 -1.512,1.922 c -1.941,2.468 -2.055,2.656 -2.055,3.437 l 0,0.649 3.192,3.199 3.187,3.199 0.774,0 c 0.769,0 0.789,-0.012 3.019,-1.762 l 2.246,-1.758 1.446,0.7 c 0.797,0.386 2.074,0.91 2.843,1.16 l 1.399,0.461 0.168,1.25 c 0.094,0.691 0.191,1.48 0.215,1.761 0.156,1.676 0.281,2.465 0.39,2.465 0.067,0 0.09,0.09 0.047,0.2 -0.043,0.109 0.16,0.402 0.453,0.66 l 0.532,0.465 4.542,-0.043 4.547,-0.047 0.371,-0.348 c 0.481,-0.449 0.68,-1.082 0.715,-2.254 0.012,-0.523 0.067,-0.949 0.114,-0.953 0.046,0 0.132,-0.473 0.187,-1.051 0.207,-2.246 0.074,-2.043 1.664,-2.562 0.77,-0.254 2.047,-0.778 2.832,-1.168 l 1.434,-0.707 1.976,1.554 c 2.692,2.121 2.649,2.098 3.453,2.008 0.657,-0.074 0.762,-0.164 3.836,-3.246 l 3.161,-3.172 -0.008,-0.652 c -0.004,-0.359 -0.074,-0.781 -0.157,-0.934 -0.082,-0.156 -0.878,-1.211 -1.773,-2.347 l -1.625,-2.063 0.668,-1.355 c 0.363,-0.746 0.887,-2.008 1.156,-2.805 0.274,-0.801 0.508,-1.473 0.524,-1.496 0.019,-0.024 1.136,-0.168 2.484,-0.328 2.996,-0.348 3.414,-0.457 3.887,-1.02 l 0.375,-0.445 0,-4.422 c 0,-4.879 -0.031,-5.062 -0.895,-5.508 -0.246,-0.129 -0.636,-0.207 -0.867,-0.172 -0.226,0.032 -0.414,0.016 -0.414,-0.039 0,-0.058 -0.477,-0.152 -1.055,-0.211 -0.578,-0.062 -1.312,-0.148 -1.632,-0.195 -0.317,-0.047 -9.305,-0.105 -19.973,-0.129 l -19.395,-0.043 -0.082,-0.472 c -0.093,-0.504 -0.527,-3.997 -0.527,-4.227 0,-0.078 0.234,0.137 0.519,0.473 0.661,0.769 1.239,1.07 2.083,1.078 1.457,0.019 2.179,-0.883 2.183,-2.727 0,-0.558 -0.066,-1.254 -0.148,-1.551 -0.231,-0.828 -1.02,-1.894 -1.664,-2.242 -0.668,-0.359 -1.832,-0.523 -2.465,-0.344 z m 2.066,1.11 c 1.235,0.918 1.582,3.461 0.606,4.437 -1.102,1.102 -2.883,-0.125 -3.313,-2.285 -0.207,-1.023 -0.289,-2.398 -0.14,-2.305 0.066,0.043 0.238,0.004 0.378,-0.082 0.422,-0.257 2.008,-0.105 2.469,0.235 z m 1.684,13.629 c 0.121,0.715 0.144,0.738 0.844,0.988 l 0.722,0.258 0.488,-0.375 c 0.266,-0.203 0.582,-0.371 0.696,-0.371 0.195,0 1.551,1.336 1.551,1.527 0,0.047 -0.2,0.336 -0.442,0.637 l -0.445,0.554 0.336,0.708 c 0.312,0.656 0.383,0.714 0.914,0.757 0.316,0.024 0.66,0.114 0.762,0.2 0.199,0.164 0.253,1.812 0.07,2.101 -0.063,0.094 -0.426,0.227 -0.813,0.289 -0.672,0.113 -0.711,0.149 -0.968,0.832 l -0.274,0.711 0.906,1.141 -1.628,1.629 -0.625,-0.442 c -0.583,-0.414 -1.106,-0.511 -0.891,-0.16 0.055,0.086 0.027,0.113 -0.055,0.063 -0.082,-0.055 -0.347,-0.028 -0.594,0.058 -0.39,0.137 -0.457,0.242 -0.562,0.906 l -0.117,0.75 -0.992,0.043 c -1.137,0.051 -1.399,-0.089 -1.403,-0.75 -0.004,-0.617 -0.113,-0.75 -0.89,-1.086 l -0.672,-0.285 -0.489,0.418 c -0.265,0.227 -0.554,0.418 -0.636,0.422 -0.082,0.004 -0.492,-0.34 -0.91,-0.762 l -0.758,-0.769 0.453,-0.613 0.453,-0.618 -0.293,-0.683 c -0.285,-0.652 -0.332,-0.692 -1.035,-0.805 l -0.734,-0.121 0,-1.152 c 0,-1.254 -0.004,-1.246 0.91,-1.34 0.644,-0.067 0.574,-0.004 0.886,-0.809 l 0.25,-0.64 -0.445,-0.621 -0.449,-0.622 0.746,-0.699 c 0.406,-0.383 0.801,-0.718 0.875,-0.746 0.078,-0.027 0.359,0.117 0.629,0.324 0.586,0.45 0.566,0.446 1.34,0.125 0.613,-0.254 0.765,-0.492 0.769,-1.211 0,-0.207 0.047,-0.421 0.106,-0.476 0.054,-0.055 0.593,-0.082 1.195,-0.059 l 1.094,0.039 0.125,0.735 z m -2.664,2.761 c -0.598,0.262 -1.391,0.989 -1.684,1.551 -0.25,0.473 -0.5,1.715 -0.387,1.903 0.043,0.07 0.094,0.351 0.11,0.625 0.019,0.273 0.222,0.765 0.457,1.101 1.195,1.703 3.594,2.039 5.133,0.727 2.515,-2.157 1.054,-6.153 -2.243,-6.129 -0.48,0 -1.105,0.101 -1.386,0.222 z m 26.562,-2.812 c 0.043,0.375 0.11,0.703 0.145,0.73 0.195,0.137 1.187,0.547 1.32,0.547 0.086,0 0.352,-0.164 0.586,-0.363 0.238,-0.199 0.512,-0.363 0.609,-0.363 0.098,0 0.496,0.324 0.883,0.718 0.77,0.782 0.766,0.731 0.137,1.75 -0.211,0.333 -0.203,0.415 0.082,1.051 0.281,0.625 0.355,0.688 0.797,0.688 0.902,0 0.949,0.066 0.949,1.304 l 0,1.129 -0.453,0.09 c -0.25,0.051 -0.594,0.09 -0.762,0.09 -0.242,0 -0.371,0.164 -0.574,0.734 l -0.262,0.739 0.375,0.488 c 0.203,0.266 0.371,0.57 0.371,0.672 0,0.226 -1.304,1.578 -1.519,1.57 -0.082,0 -0.375,-0.187 -0.649,-0.418 l -0.5,-0.414 -0.66,0.285 c -0.765,0.328 -0.875,0.465 -0.879,1.078 -0.004,0.661 -0.265,0.801 -1.402,0.75 l -0.992,-0.043 -0.129,-0.738 c -0.117,-0.711 -0.152,-0.754 -0.828,-1.039 l -0.707,-0.301 -0.532,0.422 c -0.293,0.235 -0.574,0.422 -0.625,0.422 -0.05,0 -0.445,-0.355 -0.878,-0.793 l -0.782,-0.793 0.453,-0.57 0.457,-0.567 -0.3,-0.718 c -0.293,-0.692 -0.332,-0.723 -1.047,-0.852 l -0.742,-0.133 -0.043,-0.992 c -0.028,-0.586 0.023,-1.07 0.117,-1.187 0.09,-0.11 0.437,-0.219 0.769,-0.243 0.567,-0.039 0.625,-0.089 0.934,-0.742 l 0.332,-0.703 -0.438,-0.555 c -0.242,-0.304 -0.437,-0.605 -0.437,-0.671 0,-0.204 1.352,-1.508 1.562,-1.508 0.11,0 0.418,0.168 0.684,0.371 l 0.488,0.375 0.723,-0.258 c 0.699,-0.246 0.723,-0.277 0.809,-0.93 0.05,-0.371 0.136,-0.718 0.191,-0.773 0.055,-0.059 0.594,-0.082 1.195,-0.059 l 1.094,0.039 0.078,0.684 z m -2.883,2.961 c -1.269,0.633 -1.968,1.887 -1.851,3.324 0.16,1.965 1.863,3.418 3.769,3.223 1.903,-0.196 3.164,-1.567 3.164,-3.442 0,-2.672 -2.675,-4.304 -5.082,-3.105 z m -14.007,-17.586 c -1.301,0.477 -1.914,1.605 -1.805,3.312 0.117,1.786 1.172,3.086 2.801,3.45 1.965,0.437 3.398,-0.754 3.406,-2.832 0.004,-1.118 -0.172,-1.711 -0.754,-2.567 -0.816,-1.195 -2.449,-1.804 -3.648,-1.363 z m 2.39,1.246 c 1.172,1.231 1.305,3.344 0.27,4.379 -0.535,0.535 -1.461,0.566 -2.188,0.078 -1.386,-0.934 -1.699,-3.492 -0.566,-4.625 0.347,-0.348 0.531,-0.414 1.172,-0.414 0.699,0 0.804,0.047 1.312,0.582 z m 8.438,-1.355 c -0.18,0.039 -0.328,0.132 -0.328,0.211 0,0.082 -0.063,0.105 -0.141,0.058 -0.074,-0.047 -0.246,0.125 -0.383,0.387 -0.199,0.39 -0.226,0.73 -0.152,2 0.047,0.84 0.129,1.871 0.183,2.289 l 0.098,0.762 -0.539,0 c -0.516,0 -0.535,0.015 -0.488,0.472 0.039,0.442 0.082,0.473 0.644,0.516 l 0.602,0.043 0.125,0.973 c 0.125,0.968 0.125,0.972 0.613,1.019 0.488,0.047 0.488,0.043 0.399,-0.473 -0.051,-0.285 -0.129,-0.746 -0.18,-1.027 l -0.086,-0.508 0.973,0 c 0.945,0 0.976,-0.011 0.89,-0.324 -0.047,-0.18 -0.09,-0.41 -0.09,-0.508 0,-0.129 -0.285,-0.183 -0.929,-0.183 -1.082,0 -1.012,0.121 -1.258,-2.125 -0.121,-1.125 -0.113,-1.555 0.035,-2.012 0.176,-0.527 0.242,-0.582 0.75,-0.625 0.305,-0.024 0.746,0.019 0.98,0.101 0.387,0.137 0.422,0.122 0.422,-0.203 0,-0.55 -1.222,-1.031 -2.14,-0.843 z m 15.218,0.043 c -0.699,0.171 -1.187,0.582 -1.585,1.324 -0.293,0.551 -0.336,0.801 -0.29,1.801 0.106,2.414 1.457,3.734 3.844,3.757 0.574,0.004 1.078,-0.027 1.125,-0.074 0.043,-0.043 0.012,-0.277 -0.074,-0.519 l -0.152,-0.438 -0.996,0.07 c -0.86,0.063 -1.071,0.024 -1.536,-0.261 -1.355,-0.84 -1.644,-3.438 -0.484,-4.41 0.559,-0.473 1.551,-0.508 2.344,-0.082 0.297,0.156 0.566,0.289 0.597,0.289 0.028,0 0.012,-0.211 -0.043,-0.469 -0.16,-0.789 -1.543,-1.285 -2.75,-0.988 z m 14.547,-0.008 c -0.754,0.191 -1.32,0.699 -1.75,1.578 -0.375,0.765 -0.41,0.961 -0.406,2.5 0,1.926 0.215,2.734 1.109,4.156 1.243,1.973 3.086,3.07 5.692,3.391 0.648,0.078 1.586,0.195 2.086,0.261 0.5,0.067 0.933,0.098 0.961,0.067 0.027,-0.027 -0.008,-0.36 -0.078,-0.735 -0.852,-4.523 -1.137,-8.511 -0.758,-10.5 0.07,-0.367 0.039,-0.39 -0.699,-0.484 -0.422,-0.051 -0.883,-0.129 -1.024,-0.168 -0.23,-0.066 -0.254,0.063 -0.254,1.317 0,0.761 -0.051,1.386 -0.113,1.386 -0.059,0 -0.234,-0.23 -0.387,-0.508 -0.347,-0.652 -1.539,-1.769 -2.152,-2.023 -0.633,-0.266 -1.676,-0.375 -2.227,-0.238 z m 2.871,2.082 c 0.504,0.379 0.797,0.808 1.465,2.14 0.715,1.434 0.864,1.871 1.051,3.121 0.117,0.797 0.215,1.801 0.219,2.231 l 0,0.785 -1.016,-0.086 c -1.984,-0.168 -3.535,-1.226 -4.293,-2.937 -0.672,-1.528 -0.785,-3.68 -0.246,-4.825 0.473,-1.011 1.785,-1.21 2.82,-0.429 z m -82.968,-1.524 c 0.644,4.032 1.679,14.336 1.679,16.739 l 0,0.953 2.942,0.093 c 3.011,0.09 4.242,0.004 5.449,-0.398 0.762,-0.254 1.82,-1.043 1.687,-1.258 -0.046,-0.078 0,-0.121 0.106,-0.097 0.105,0.023 0.348,-0.286 0.547,-0.688 0.277,-0.57 0.351,-0.941 0.344,-1.766 -0.02,-1.871 -1.075,-3.492 -2.879,-4.425 -0.516,-0.266 -0.938,-0.516 -0.938,-0.559 0,-0.043 0.231,-0.199 0.516,-0.355 1.082,-0.582 1.875,-1.879 2.672,-4.356 0.527,-1.656 1.164,-3.973 1.164,-4.254 0,-0.14 -0.289,-0.176 -1.172,-0.144 l -1.176,0.043 -0.484,1.933 c -0.871,3.457 -1.586,4.879 -2.758,5.469 -0.477,0.238 -0.934,0.297 -2.625,0.34 l -2.047,0.047 -0.086,-0.555 c -0.074,-0.496 -0.207,-2.176 -0.476,-6.109 l -0.086,-1.2 -2.465,0 0.086,0.547 z m 7.078,9.34 c 1.594,0.34 2.781,1.235 3.179,2.403 0.106,0.304 0.192,0.953 0.196,1.437 0.008,1.141 -0.461,1.902 -1.469,2.402 -0.617,0.301 -0.945,0.348 -2.746,0.395 -1.676,0.039 -2.082,0.008 -2.262,-0.172 -0.144,-0.145 -0.254,-0.672 -0.32,-1.574 -0.055,-0.742 -0.184,-2.184 -0.285,-3.203 l -0.184,-1.852 1.563,0 c 0.859,0 1.906,0.074 2.328,0.164 z m 50.094,-9.484 c 0.195,0.98 0.418,3.004 0.503,4.605 l 0.094,1.742 0.543,0.043 c 0.645,0.055 0.629,0.153 0.34,-2.086 -0.113,-0.871 -0.254,-2.289 -0.309,-3.144 l -0.101,-1.563 -0.574,0 c -0.551,0 -0.575,0.02 -0.496,0.403 z m 15.613,0.012 c 0,0.148 0.168,1.503 0.371,3.011 0.215,1.571 0.41,3.871 0.457,5.375 l 0.086,2.629 0.742,0.09 c 1.383,0.168 1.301,0.238 1.203,-1.031 -0.047,-0.621 -0.183,-1.844 -0.304,-2.723 -0.204,-1.5 -0.383,-3.41 -0.598,-6.348 l -0.094,-1.269 -0.93,0 c -0.808,0 -0.929,0.035 -0.929,0.266 l -0.004,0 z m -14.637,7.843 c -0.578,0.367 0.098,1.586 0.766,1.379 0.613,-0.191 0.679,-0.64 0.168,-1.152 -0.379,-0.375 -0.606,-0.434 -0.934,-0.227 z m 16.453,5.559 c -0.16,0.09 -0.34,0.234 -0.398,0.32 -0.192,0.289 -0.113,1.32 0.125,1.664 0.504,0.719 1.769,0.903 2.09,0.301 0.218,-0.406 0.168,-1.344 -0.094,-1.715 -0.211,-0.301 -1.016,-0.75 -1.32,-0.738 -0.063,0 -0.243,0.078 -0.403,0.168 z m -57.699,26.988 c -0.992,1.141 -2.703,3.129 -3.809,4.414 l -2.003,2.336 -0.528,-0.269 c -1.043,-0.532 -2.672,-0.27 -3.562,0.574 -0.977,0.926 -1.282,2.617 -0.684,3.785 1.133,2.223 4.246,2.375 5.629,0.281 0.352,-0.527 0.402,-0.746 0.402,-1.711 0,-0.8 -0.07,-1.211 -0.25,-1.488 l -0.254,-0.383 4.028,-3.469 c 2.211,-1.91 4.203,-3.628 4.426,-3.82 l 0.406,-0.348 -1,-0.992 -1.004,-0.992 -1.797,2.082 z m 49.754,-1.082 -0.977,0.988 4.422,3.817 4.426,3.812 -0.254,0.387 c -0.183,0.277 -0.254,0.684 -0.254,1.488 0,0.965 0.051,1.184 0.403,1.711 0.585,0.887 1.406,1.375 2.425,1.449 2.032,0.149 3.485,-1.175 3.485,-3.164 0,-1.371 -0.703,-2.461 -1.914,-2.964 -0.692,-0.29 -2.024,-0.258 -2.653,0.058 l -0.488,0.25 -3.223,-3.746 c -1.769,-2.062 -3.289,-3.707 -3.371,-3.656 -0.082,0.051 -0.109,0.023 -0.054,-0.059 0.05,-0.086 -0.153,-0.426 -0.45,-0.758 l -0.543,-0.605 -0.98,0.992 z"
         style="fill:#0000ff;fill-opacity:1;fill-rule:nonzero;stroke:none"
         id="path3546"
         inkscape:connector-curvature="0" /></g></g></svg>